<svg width="664" height="175" viewBox="0 0 664 175" fill="none" xmlns="http://www.w3.org/2000/svg">
<path d="M42.312 76.048C43.144 76.048 43.912 76.336 44.616 76.912C45.384 77.424 45.768 77.712 45.768 77.776V88.72C45.768 89.36 45.384 89.904 44.616 90.352C43.848 90.8 43.112 91.024 42.408 91.024C41.768 91.024 40.968 90.576 40.008 89.68C39.112 88.72 38.024 87.664 36.744 86.512C33.352 83.568 29.832 82.096 26.184 82.096C24.84 82.096 23.624 82.8 22.536 84.208C21.512 85.616 20.68 87.12 20.04 88.72C19.4 90.32 18.952 91.888 18.696 93.424C18.312 95.6 18.12 97.968 18.12 100.528C18.056 100.72 18.024 100.88 18.024 101.008C18.024 103.376 18.248 105.456 18.696 107.248C19.208 109.04 19.848 110.704 20.616 112.24C23.048 115.184 25.192 116.912 27.048 117.424C31.528 117.424 35.784 115.472 39.816 111.568C40.2 111.12 40.488 110.64 40.68 110.128C40.872 109.616 41.096 109.104 41.352 108.592C41.928 107.504 42.824 106.96 44.04 106.96C45.256 106.896 46.056 107.184 46.44 107.824C46.824 108.464 47.016 109.104 47.016 109.744C46.44 110.896 45.48 112.144 44.136 113.488C42.856 114.832 41.512 115.984 40.104 116.944C38.76 117.904 37.32 118.672 35.784 119.248C33.032 120.272 29.672 120.784 25.704 120.784C21.8 120.784 18.312 120.432 15.24 119.728C12.232 118.96 9.608 117.744 7.368 116.08C2.568 112.432 0.168 106.544 0.168 98.416C0.232 92.784 2.248 88.048 6.216 84.208C10.76 79.856 16.744 77.648 24.168 77.584C26.088 77.584 27.848 77.776 29.448 78.16C31.112 78.48 33.128 78.64 35.496 78.64C37.864 78.64 40.136 77.776 42.312 76.048ZM75.708 115.6C77.18 115.6 78.108 116.4 78.492 118C78.492 119.152 78.14 119.824 77.436 120.016C76.732 120.272 75.836 120.4 74.748 120.4C73.724 120.4 72.892 120.368 72.252 120.304C71.484 120.304 70.78 120.24 70.14 120.112C68.604 119.856 66.748 119.728 64.572 119.728C62.46 119.728 60.924 119.76 59.964 119.824C59.068 119.952 58.204 120.112 57.372 120.304C56.54 120.496 55.708 120.688 54.876 120.88L52.092 121.648H51.516C49.468 121.648 48.444 120.72 48.444 118.864C48.444 117.648 49.372 116.848 51.228 116.464C53.34 116.08 54.94 115.248 56.028 113.968C57.18 112.688 57.98 111.472 58.428 110.32C59.004 108.784 59.292 106.16 59.292 102.448C60.06 87.088 60.444 74.384 60.444 64.336L58.428 64.432C57.468 64.432 56.764 64.272 56.316 63.952C55.868 63.632 55.644 62.96 55.644 61.936C55.644 60.912 56.06 60.336 56.892 60.208C57.724 60.08 58.844 59.824 60.252 59.44C65.564 58.096 69.884 56.432 73.212 54.448C74.236 53.168 75.036 52.528 75.612 52.528C76.188 52.528 76.604 52.848 76.86 53.488C77.18 54.064 77.34 54.736 77.34 55.504C77.34 56.272 77.052 57.136 76.476 58.096C75.964 59.056 75.612 60.08 75.42 61.168C75.292 62.256 75.1 63.76 74.844 65.68C74.652 67.536 74.46 69.36 74.268 71.152C73.82 75.376 73.596 77.648 73.596 77.968C73.596 78.224 73.596 78.704 73.596 79.408C73.66 80.112 73.692 80.592 73.692 80.848C74.844 79.696 76.348 78.48 78.204 77.2C80.124 75.92 81.596 75.184 82.62 74.992C83.644 74.736 85.148 74.608 87.132 74.608C91.612 74.608 95.516 76.272 98.844 79.6C102.556 83.312 104.54 88.976 104.796 96.592C104.86 98.64 104.892 100.624 104.892 102.544V103.792C105.34 108.272 105.948 110.8 106.716 111.376L108.732 111.28C110.716 111.28 111.964 111.472 112.476 111.856C113.052 112.176 113.34 113.04 113.34 114.448C112.572 115.984 109.5 117.264 104.124 118.288C102.78 118.544 101.628 118.672 100.668 118.672C97.404 118.672 94.78 118 92.796 116.656C90.876 115.312 89.34 113.136 88.188 110.128L87.708 108.784C87.452 108.272 87.228 107.76 87.036 107.248L86.556 105.712C86.364 105.264 86.268 104.976 86.268 104.848V87.376C86.268 85.904 85.884 84.72 85.116 83.824C84.348 82.864 83.356 82.384 82.14 82.384C80.988 82.384 79.932 82.832 78.972 83.728C78.076 84.624 77.244 85.776 76.476 87.184C74.556 90.512 73.34 94.544 72.828 99.28L72.444 102.928C72.06 105.616 71.868 107.248 71.868 107.824L72.444 115.024C72.892 115.472 73.436 115.696 74.076 115.696L75.708 115.6ZM89.244 78.928C89.244 78.736 89.18 78.64 89.052 78.64C88.796 78.64 88.668 78.704 88.668 78.832C88.668 79.088 88.796 79.216 89.052 79.216C89.18 79.216 89.244 79.12 89.244 78.928ZM165.208 121.168C158.937 121.168 154.105 117.328 150.713 109.648C150.201 112.144 147.897 114.544 143.801 116.848C140.025 118.96 136.569 120.016 133.433 120.016C129.401 120.016 125.881 118.224 122.873 114.64C120.249 111.504 118.937 108.048 118.937 104.272V88.24C118.937 87.472 118.745 86.864 118.361 86.416C117.977 85.904 117.561 85.424 117.113 84.976C116.665 84.464 116.249 83.952 115.865 83.44C115.481 82.864 115.289 82.128 115.289 81.232C115.289 79.376 118.425 78.448 124.697 78.448H128.441C130.809 78.448 132.441 78.512 133.337 78.64L136.889 79.888C136.889 82.192 136.697 85.52 136.312 89.872C135.545 98.192 135.129 103.472 135.065 105.712V106.768C135.129 108.624 135.289 109.84 135.545 110.416C136.185 111.632 137.273 112.24 138.809 112.24C139.897 112.24 140.889 111.92 141.785 111.28L144.185 109.648C144.313 109.456 144.793 108.784 145.625 107.632C147.225 105.648 148.025 104.528 148.025 104.272V79.888C148.025 77.904 151.545 76.848 158.585 76.72H163.481C164.825 76.72 165.721 76.88 166.169 77.2C166.681 77.456 166.937 77.936 166.937 78.64C166.937 79.28 166.905 79.728 166.841 79.984C166.777 80.176 166.585 80.336 166.265 80.464C166.073 81.872 165.817 83.184 165.497 84.4L164.729 87.856C164.153 90.416 163.865 92.944 163.865 95.44C163.865 105.36 165.721 111.568 169.433 114.064C170.713 114.896 171.801 115.472 172.697 115.792C173.657 116.112 174.137 116.304 174.137 116.368C174.137 117.328 173.049 118.384 170.873 119.536C167.993 120.624 166.169 121.168 165.401 121.168C165.401 121.168 165.369 121.168 165.305 121.168H165.208ZM218.75 76.048C219.582 76.048 220.35 76.336 221.054 76.912C221.822 77.424 222.206 77.712 222.206 77.776V88.72C222.206 89.36 221.822 89.904 221.054 90.352C220.286 90.8 219.55 91.024 218.846 91.024C218.206 91.024 217.406 90.576 216.446 89.68C215.55 88.72 214.462 87.664 213.182 86.512C209.79 83.568 206.27 82.096 202.622 82.096C201.278 82.096 200.062 82.8 198.974 84.208C197.95 85.616 197.118 87.12 196.478 88.72C195.838 90.32 195.39 91.888 195.134 93.424C194.75 95.6 194.558 97.968 194.558 100.528C194.494 100.72 194.462 100.88 194.462 101.008C194.462 103.376 194.686 105.456 195.134 107.248C195.646 109.04 196.286 110.704 197.054 112.24C199.486 115.184 201.63 116.912 203.486 117.424C207.966 117.424 212.222 115.472 216.254 111.568C216.638 111.12 216.926 110.64 217.118 110.128C217.31 109.616 217.534 109.104 217.79 108.592C218.366 107.504 219.262 106.96 220.478 106.96C221.694 106.896 222.494 107.184 222.878 107.824C223.262 108.464 223.454 109.104 223.454 109.744C222.878 110.896 221.918 112.144 220.574 113.488C219.294 114.832 217.95 115.984 216.542 116.944C215.198 117.904 213.758 118.672 212.222 119.248C209.47 120.272 206.11 120.784 202.142 120.784C198.238 120.784 194.75 120.432 191.678 119.728C188.67 118.96 186.046 117.744 183.806 116.08C179.006 112.432 176.605 106.544 176.605 98.416C176.67 92.784 178.686 88.048 182.654 84.208C187.198 79.856 193.182 77.648 200.606 77.584C202.526 77.584 204.286 77.776 205.886 78.16C207.55 78.48 209.566 78.64 211.934 78.64C214.302 78.64 216.574 77.776 218.75 76.048ZM285.842 116.848C285.842 118.32 282.898 119.056 277.01 119.056C273.874 119.056 271.858 118.96 270.962 118.768C270.13 118.576 269.138 118.32 267.986 118C266.834 117.68 265.714 116.944 264.626 115.792C263.602 114.576 262.674 113.232 261.842 111.76C261.074 110.224 260.37 108.624 259.73 106.96C259.026 105.36 258.29 103.856 257.522 102.448C255.73 99.312 253.618 97.712 251.186 97.648C250.098 97.648 249.426 97.712 249.17 97.84L247.922 98.992C247.794 100.016 247.698 100.848 247.634 101.488C247.57 102.128 247.506 102.736 247.442 103.312C247.378 103.888 247.346 104.304 247.346 104.56C247.346 104.816 247.378 105.392 247.442 106.288C247.57 107.12 247.634 108.016 247.634 108.976C247.698 111.216 247.794 112.72 247.922 113.488C248.114 114.128 248.594 114.512 249.362 114.64L251.858 115.024C252.754 115.152 253.554 115.408 254.258 115.792C254.962 116.176 255.314 116.88 255.314 117.904C255.314 118.928 254.898 119.44 254.066 119.44C253.554 119.44 252.722 119.472 251.57 119.536C250.418 119.6 249.106 119.664 247.634 119.728C246.162 119.792 244.626 119.856 243.026 119.92L238.226 120.304C236.754 120.368 235.442 120.432 234.29 120.496C233.138 120.56 232.274 120.624 231.698 120.688C229.65 120.688 228.626 119.888 228.626 118.288C228.626 117.456 228.882 116.816 229.394 116.368C229.906 115.856 230.45 115.376 231.026 114.928C231.666 114.416 232.242 113.84 232.754 113.2C233.266 112.56 233.522 111.632 233.522 110.416C234.418 103.952 234.866 99.344 234.866 96.592V89.104C234.866 81.552 234.418 74.832 233.522 68.944C233.202 67.216 232.274 66.224 230.738 65.968C230.098 65.84 229.426 65.712 228.722 65.584C228.018 65.392 227.41 64.944 226.898 64.24L226.802 63.856C226.802 62.96 227.218 62.288 228.05 61.84C228.882 61.392 229.714 61.168 230.546 61.168L231.122 61.264C232.082 60.88 233.778 60.144 236.21 59.056L241.682 56.464C242.962 55.888 243.794 55.536 244.178 55.408C244.562 55.216 244.946 54.96 245.33 54.64L246.482 53.488C247.57 52.592 248.498 52.144 249.266 52.144C250.418 52.144 250.994 53.008 250.994 54.736C250.994 56.464 250.77 57.808 250.322 58.768C249.874 63.952 249.554 69.936 249.362 76.72C249.17 83.504 249.074 87.024 249.074 87.28V88.432L249.17 91.504V92.464C255.698 88.688 261.33 84.496 266.066 79.888C265.17 79.76 264.242 79.568 263.282 79.312C262.386 78.992 261.938 78.256 261.938 77.104C261.938 75.376 263.826 74.512 267.602 74.512C274.706 74.512 278.258 75.664 278.258 77.968C278.258 79.632 276.178 80.464 272.018 80.464L259.922 89.968C263.25 91.76 266.834 95.408 270.674 100.912L274.898 107.152C276.242 109.136 277.298 110.512 278.066 111.28C278.898 112.048 279.698 112.592 280.466 112.912C281.298 113.168 282.098 113.488 282.866 113.872C283.698 114.192 284.402 114.576 284.978 115.024C285.554 115.472 285.842 116.08 285.842 116.848ZM305.537 118.768C302.145 118.768 297.761 119.216 292.385 120.112C290.785 120.112 289.985 119.28 289.985 117.616C289.985 116.4 290.305 115.632 290.945 115.312C291.649 114.992 292.449 114.832 293.345 114.832C294.241 114.768 295.105 114.704 295.937 114.64C296.833 114.576 297.441 114.224 297.761 113.584V112.624L297.857 109.648V108.688C297.857 101.008 297.217 94.384 295.937 88.816C295.169 87.664 294.241 86.992 293.153 86.8C292.065 86.608 291.009 86.512 289.985 86.512C289.025 86.448 288.161 86.32 287.393 86.128C286.689 85.872 286.337 85.296 286.337 84.4C286.337 83.504 286.785 82.8 287.681 82.288C288.641 81.776 289.729 81.328 290.945 80.944C292.225 80.56 293.441 80.24 294.593 79.984C295.809 79.664 297.153 79.216 298.625 78.64L304.673 76.432C307.297 75.472 309.505 74.992 311.297 74.992C313.089 74.992 314.081 75.184 314.273 75.568C314.529 75.888 314.657 76.688 314.657 77.968C314.657 79.248 314.465 80.272 314.081 81.04L313.985 97.648C313.985 101.168 314.081 103.44 314.273 104.464C314.529 105.808 314.913 107.44 315.425 109.36C316.001 111.28 316.673 112.592 317.441 113.296C318.209 113.936 319.009 114.544 319.841 115.12L322.145 116.464C322.785 116.912 323.105 117.296 323.105 117.616C323.105 118.704 322.721 119.376 321.953 119.632C321.185 119.952 320.321 120.112 319.361 120.112L318.209 120.016C315.521 119.184 311.297 118.768 305.537 118.768ZM299.393 71.536C295.105 71.536 292.961 69.04 292.961 64.048C292.961 58.992 295.777 55.056 301.409 52.24C304.097 52.24 306.241 53.008 307.841 54.544C309.505 56.016 310.337 58.064 310.337 60.688C310.337 63.312 309.121 65.776 306.689 68.08C304.257 70.384 301.825 71.536 299.393 71.536Z" fill="black"/>
<path d="M322.345 145.264V0.623993H407.209V145.264H322.345ZM399.657 109.168L401.321 89.584L387.369 88.304L385.577 100.72C381.737 103.024 376.446 104.176 369.705 104.176C362.537 104.176 356.649 102 352.041 97.648C347.433 93.296 345.129 86.2987 345.129 76.656C345.129 67.5253 347.22 60.5707 351.401 55.792C355.668 51.0133 361.385 48.624 368.553 48.624C371.369 48.624 374.356 49.008 377.513 49.776C380.67 50.544 383.358 51.6533 385.577 53.104L387.369 64.112L401.321 62.832L399.273 43.504C396.628 41.0293 392.745 38.768 387.625 36.72C382.505 34.5867 376.404 33.52 369.321 33.52C358.825 33.52 350.462 35.8667 344.233 40.56C338.004 45.2533 333.524 51.0133 330.793 57.84C328.062 64.6667 326.697 71.3227 326.697 77.808C326.697 90.1813 330.708 100.208 338.729 107.888C346.75 115.483 356.692 119.28 368.553 119.28C374.526 119.28 380.5 118.341 386.473 116.464C392.532 114.587 396.926 112.155 399.657 109.168ZM404.595 145.264V0.623993H498.291V145.264H404.595ZM493.939 76.272C493.939 64.5813 490.184 54.5547 482.675 46.192C475.251 37.744 464.883 33.52 451.571 33.52C438.515 33.52 428.147 37.6587 420.467 45.936C412.787 54.2133 408.947 64.4107 408.947 76.528C408.947 88.1333 412.574 98.16 419.827 106.608C427.08 115.056 437.491 119.28 451.059 119.28C464.542 119.28 475.038 115.056 482.547 106.608C490.142 98.16 493.939 88.048 493.939 76.272ZM475.379 76.784C475.379 84.8907 473.502 91.504 469.747 96.624C465.992 101.659 460.062 104.176 451.955 104.176C443.166 104.176 436.894 101.403 433.139 95.856C429.384 90.3093 427.507 83.7387 427.507 76.144C427.507 68.2933 429.427 61.7653 433.267 56.56C437.107 51.2693 443.166 48.624 451.443 48.624C459.208 48.624 465.139 51.0987 469.235 56.048C473.331 60.9973 475.379 67.9093 475.379 76.784ZM495.72 145.264V0.623993H587.624V145.264H495.72ZM583.144 76.016C583.144 63.728 579.517 53.7867 572.264 46.192C565.096 38.5973 554.387 34.8 540.136 34.8H501.992V49.392H510.952V103.408H501.992V118H541.16C554.301 118 564.584 114.16 572.008 106.48C579.432 98.8 583.144 88.6453 583.144 76.016ZM564.712 76.272C564.712 85.8293 562.536 92.7413 558.184 97.008C553.917 101.275 547.773 103.408 539.752 103.408H528.104V49.392H539.752C556.392 49.392 564.712 58.352 564.712 76.272ZM585.095 145.264V0.623993H663.687V145.264H585.095ZM591.367 118H655.623L658.183 93.68L643.591 92.4L641.031 103.408H617.479V83.44H652.551V68.976H617.479V49.392H640.263L642.823 60.4L657.415 59.12L654.855 34.8H591.367V49.392H600.327V103.408H591.367V118Z" fill="#FF0000"/>
<path d="M567.8 174.26V151.66H579.54V174.26H567.8ZM576.66 161.2L578.94 161L578.54 157H568.78V159.28H570.18V167.72H568.78V170H574.98V167.72H572.86V165.18H578.32V162.92H572.86V159.28H576.26L576.66 161.2ZM579.148 174.26V151.66H588.348V174.26H579.148ZM585.628 160.86C585.014 160.86 584.541 161.04 584.208 161.4C583.888 161.747 583.654 162.18 583.508 162.7V160.98H579.828V162.94H581.128V168.06H579.928V170H585.308V168.06H583.708V164.3C583.708 163.86 583.814 163.527 584.028 163.3C584.254 163.073 584.514 162.96 584.808 162.96C585.008 162.96 585.241 163.04 585.508 163.2L585.848 164.74L587.808 164.52L587.408 161.36C587.101 161.173 586.788 161.047 586.468 160.98C586.161 160.9 585.881 160.86 585.628 160.86ZM587.976 174.26V151.66H598.016V174.26H587.976ZM597.436 167.16L595.276 166.76C595.222 167.027 595.069 167.327 594.816 167.66C594.576 167.993 594.109 168.16 593.416 168.16C592.149 168.16 591.442 167.447 591.296 166.02H597.216C597.309 165.593 597.356 165.16 597.356 164.72C597.342 163.547 596.942 162.6 596.156 161.88C595.382 161.16 594.369 160.8 593.116 160.8C591.689 160.8 590.576 161.267 589.776 162.2C588.989 163.12 588.596 164.273 588.596 165.66C588.596 167.167 589.029 168.3 589.896 169.06C590.776 169.82 591.889 170.2 593.236 170.2C594.529 170.2 595.536 169.893 596.256 169.28C596.976 168.667 597.369 167.96 597.436 167.16ZM594.696 164.52H591.316C591.396 163.96 591.582 163.507 591.876 163.16C592.169 162.813 592.582 162.64 593.116 162.64C593.729 162.64 594.156 162.84 594.396 163.24C594.649 163.64 594.749 164.067 594.696 164.52ZM597.585 174.26V151.66H607.625V174.26H597.585ZM607.045 167.16L604.885 166.76C604.832 167.027 604.678 167.327 604.425 167.66C604.185 167.993 603.718 168.16 603.025 168.16C601.758 168.16 601.052 167.447 600.905 166.02H606.825C606.918 165.593 606.965 165.16 606.965 164.72C606.952 163.547 606.552 162.6 605.765 161.88C604.992 161.16 603.978 160.8 602.725 160.8C601.298 160.8 600.185 161.267 599.385 162.2C598.598 163.12 598.205 164.273 598.205 165.66C598.205 167.167 598.638 168.3 599.505 169.06C600.385 169.82 601.498 170.2 602.845 170.2C604.138 170.2 605.145 169.893 605.865 169.28C606.585 168.667 606.978 167.96 607.045 167.16ZM604.305 164.52H600.925C601.005 163.96 601.192 163.507 601.485 163.16C601.778 162.813 602.192 162.64 602.725 162.64C603.338 162.64 603.765 162.84 604.005 163.24C604.258 163.64 604.358 164.067 604.305 164.52ZM607.195 174.26V151.66H613.275V174.26H607.195ZM607.755 170H612.735V168.06H611.535V156.24H607.655V158.2H608.955V168.06H607.755V170ZM612.839 174.26V151.66H623.379V174.26H612.839ZM614.399 161.62L613.999 163.96L616.059 164.18L616.399 162.9C616.612 162.793 616.826 162.727 617.039 162.7C617.266 162.66 617.512 162.64 617.779 162.64C618.512 162.64 618.939 162.86 619.059 163.3C619.192 163.74 619.259 164.193 619.259 164.66V164.96C618.846 164.907 618.352 164.88 617.779 164.88C616.752 164.88 615.792 165.06 614.899 165.42C614.019 165.78 613.579 166.513 613.579 167.62C613.579 168.567 613.879 169.233 614.479 169.62C615.079 170.007 615.706 170.2 616.359 170.2C617.092 170.2 617.692 170.013 618.159 169.64C618.639 169.267 619.006 168.853 619.259 168.4V168.42C619.392 169.607 620.052 170.2 621.239 170.2C621.799 170.2 622.339 170.06 622.859 169.78L622.839 168.42C622.706 168.46 622.579 168.48 622.459 168.48C622.046 168.48 621.839 168.247 621.839 167.78V163.86C621.839 162.833 621.486 162.067 620.779 161.56C620.072 161.053 619.232 160.8 618.259 160.8C617.526 160.8 616.892 160.86 616.359 160.98C615.839 161.087 615.186 161.3 614.399 161.62ZM619.259 166.32C619.192 167.027 618.959 167.547 618.559 167.88C618.172 168.2 617.752 168.36 617.299 168.36C616.912 168.36 616.639 168.26 616.479 168.06C616.319 167.86 616.239 167.613 616.239 167.32C616.239 166.827 616.412 166.5 616.759 166.34C617.106 166.167 617.506 166.08 617.959 166.08C618.172 166.08 618.386 166.093 618.599 166.12C618.826 166.147 619.046 166.173 619.259 166.2V166.32ZM622.956 174.26V151.66H635.216V174.26H622.956ZM629.796 170H634.776V168.06H633.576V163.92C633.576 162.853 633.263 162.067 632.636 161.56C632.01 161.053 631.27 160.8 630.416 160.8C629.083 160.8 628.116 161.32 627.516 162.36V160.98H623.636V162.94H624.936V168.06H623.736V170H628.716V168.06H627.516V164.82C627.53 164.207 627.703 163.713 628.036 163.34C628.37 162.953 628.843 162.76 629.456 162.76C629.963 162.76 630.343 162.927 630.596 163.26C630.863 163.593 630.996 164.147 630.996 164.92V168.06H629.796V170ZM634.812 174.26V151.66H644.612V174.26H634.812ZM644.112 166.64L641.952 166.24C641.778 167.52 641.185 168.16 640.172 168.16C638.798 168.16 638.112 167.28 638.112 165.52C638.112 164.573 638.305 163.893 638.692 163.48C639.078 163.053 639.545 162.84 640.092 162.84C640.478 162.84 640.932 162.927 641.452 163.1L641.752 164.58L643.812 164.36L643.412 161.62C642.865 161.327 642.305 161.12 641.732 161C641.172 160.867 640.645 160.8 640.152 160.8C638.845 160.8 637.732 161.207 636.812 162.02C635.892 162.833 635.432 164.04 635.432 165.64C635.432 167.16 635.852 168.3 636.692 169.06C637.545 169.82 638.625 170.2 639.932 170.2C641.385 170.2 642.418 169.813 643.032 169.04C643.658 168.267 644.018 167.467 644.112 166.64ZM644.226 174.26V151.66H654.266V174.26H644.226ZM653.686 167.16L651.526 166.76C651.472 167.027 651.319 167.327 651.066 167.66C650.826 167.993 650.359 168.16 649.666 168.16C648.399 168.16 647.692 167.447 647.546 166.02H653.466C653.559 165.593 653.606 165.16 653.606 164.72C653.592 163.547 653.192 162.6 652.406 161.88C651.632 161.16 650.619 160.8 649.366 160.8C647.939 160.8 646.826 161.267 646.026 162.2C645.239 163.12 644.846 164.273 644.846 165.66C644.846 167.167 645.279 168.3 646.146 169.06C647.026 169.82 648.139 170.2 649.486 170.2C650.779 170.2 651.786 169.893 652.506 169.28C653.226 168.667 653.619 167.96 653.686 167.16ZM650.946 164.52H647.566C647.646 163.96 647.832 163.507 648.126 163.16C648.419 162.813 648.832 162.64 649.366 162.64C649.979 162.64 650.406 162.84 650.646 163.24C650.899 163.64 650.999 164.067 650.946 164.52ZM653.835 174.26V151.66H663.035V174.26H653.835ZM660.315 160.86C659.702 160.86 659.228 161.04 658.895 161.4C658.575 161.747 658.342 162.18 658.195 162.7V160.98H654.515V162.94H655.815V168.06H654.615V170H659.995V168.06H658.395V164.3C658.395 163.86 658.502 163.527 658.715 163.3C658.942 163.073 659.202 162.96 659.495 162.96C659.695 162.96 659.928 163.04 660.195 163.2L660.535 164.74L662.495 164.52L662.095 161.36C661.788 161.173 661.475 161.047 661.155 160.98C660.848 160.9 660.568 160.86 660.315 160.86Z" fill="black"/>
</svg>
